<?xml version="1.0" standalone="no"?>
<!DOCTYPE svg PUBLIC "-//W3C//DTD SVG 20010904//EN"
 "http://www.w3.org/TR/2001/REC-SVG-20010904/DTD/svg10.dtd">
<svg version="1.0" xmlns="http://www.w3.org/2000/svg"
 width="320.000000pt" height="320.000000pt" viewBox="0 0 320.000000 320.000000"
 preserveAspectRatio="xMidYMid meet">

<g transform="translate(0.000000,320.000000) scale(0.100000,-0.100000)"
fill="#000000" stroke="none">
<path d="M1450 2874 c-165 -35 -304 -109 -423 -226 -255 -250 -324 -643 -171
-977 l36 -79 -226 -422 c-160 -298 -226 -432 -226 -454 0 -33 27 -67 62 -79
10 -3 100 16 200 43 101 27 184 47 186 46 1 -2 32 -86 68 -187 70 -196 91
-229 144 -229 16 0 37 10 49 23 18 18 110 185 435 795 13 24 49 -41 383 -673
56 -107 90 -145 128 -145 49 0 72 37 140 229 36 101 66 186 68 187 2 2 85 -19
186 -46 169 -46 186 -48 216 -36 38 16 59 63 45 101 -5 13 -106 207 -226 430
l-216 407 40 87 c126 267 113 565 -36 815 -176 295 -539 460 -862 390z m358
-187 c106 -37 176 -82 262 -167 160 -160 230 -391 186 -610 -19 -91 -73 -218
-127 -296 -53 -78 -154 -169 -232 -210 l-72 -38 -142 -4 c-108 -3 -160 0 -218
13 -192 42 -361 177 -449 355 -102 209 -102 412 1 620 85 175 260 314 443 355
98 22 255 14 348 -18z m-608 -1388 c44 -26 112 -57 152 -69 40 -13 75 -25 77
-26 2 -2 -68 -136 -154 -299 -87 -163 -161 -293 -165 -288 -4 4 -26 61 -49
126 -51 147 -54 153 -90 165 -25 9 -53 5 -156 -23 -69 -18 -125 -31 -125 -29
0 3 103 198 238 450 l76 142 58 -52 c32 -28 94 -72 138 -97z m1178 -205 c67
-127 122 -233 122 -236 0 -4 -57 9 -126 27 -131 35 -154 35 -185 -1 -15 -19
-99 -240 -99 -263 0 -6 -4 -11 -8 -11 -8 0 -323 582 -318 587 1 2 37 12 80 23
105 27 204 81 284 155 l67 62 31 -56 c17 -31 85 -160 152 -287z"/>
<path d="M1100 2226 c0 -5 128 -332 163 -416 l23 -55 50 -3 51 -3 78 198 c43
109 84 212 91 228 10 26 12 -3 13 -197 l1 -228 55 0 55 0 0 240 0 240 -114 0
-113 0 -48 -137 c-27 -76 -52 -149 -58 -163 -8 -22 -14 -12 -53 95 -24 66 -51
139 -60 163 l-16 42 -59 0 c-32 0 -59 -2 -59 -4z"/>
<path d="M1730 1991 l0 -241 55 0 55 0 0 79 0 78 74 5 c125 8 181 57 181 158
0 67 -20 102 -76 135 -27 16 -57 20 -161 23 l-128 4 0 -241z m241 111 c36 -46
-6 -92 -83 -92 l-48 0 0 61 0 61 57 -4 c42 -4 61 -10 74 -26z"/>
</g>
</svg>
